# xmcd
# 
# Track frame offsets:
#     150
#     17530
#     38215
#     51543
#     68388
#     85948
#     100782
#     118885
#     150431
#     161694
#     173768
#     186227
#     205630
# 
# Disc length: 2879
# 
# Revision: 0
# Processed by: cddbd v1.5.2PL0 Copyright (c) Steve Scherf et al.
# Submitted via: fre:ac v1.1beta1pre4
# 
DISCID=a00b3d0d
DTITLE=Mulebone - New Morning
DYEAR=2010
DGENRE=Blues
TTITLE0=Money And Keys
TTITLE1=New Morning
TTITLE2=Trading 40's
TTITLE3=My Kind Of Blues
TTITLE4=Spider's Web
TTITLE5=Steady Rollin' Man
TTITLE6=Kokomo
TTITLE7=How Many More Years
TTITLE8=I'll Be Alright
TTITLE9=Search My Heart
TTITLE10=Light Of This World
TTITLE11=Dark As A Dungeon
TTITLE12=Bonus Blues
EXTD=
EXTT0=
EXTT1=
EXTT2=
EXTT3=
EXTT4=
EXTT5=
EXTT6=
EXTT7=
EXTT8=
EXTT9=
EXTT10=
EXTT11=
EXTT12=
PLAYORDER=
